<svg width="214" height="200" viewBox="0 0 214 200" fill="none" xmlns="http://www.w3.org/2000/svg">
<path d="M192.823 85.1368H157.902V66.0538H183.969V55.5284H132.917V31.6241H183.281V21.1973H119.931V66.0538H144.918V85.1368H110.292V95.8584H192.823V85.1368ZM185.281 33.6241H134.917V53.5284H185.969V68.0538H159.902V83.1368H194.823V97.8584H108.292V83.1368H142.918V68.0538H117.931V19.1973H185.281V33.6241Z" fill="#EA8934"/>
<path d="M97.8062 94.1865H47.8355V75.9883H34.7525V104.712H97.8062V94.1865ZM95.4459 15H82.3629V81.2021H95.4459V15ZM49.8355 92.1865H99.8062V106.712H32.7525V74.2334C30.8141 74.9651 28.7953 75.6621 26.6959 76.3223L25.0435 76.8418L18.3697 62.9609L20.5855 62.2734L21.7838 61.8955C27.7078 59.9926 32.6062 57.9098 36.5084 55.6631C38.8807 54.2598 40.9526 52.7775 42.7359 51.2217L21.3853 52.8389L18.9127 38.5508L51.5787 37.5186C51.9141 36.3491 52.1914 35.1495 52.4097 33.9189H23.899V19.3936H70.3941V21.3936C70.3941 30.1979 68.9825 38.1341 66.1148 45.167L66.1138 45.166C63.2864 52.2616 58.6428 58.3991 52.2408 63.5752C47.2381 67.6199 40.9432 71.0821 33.399 73.9883H49.8355V92.1865ZM25.899 31.9189H54.7232C54.4522 34.2378 53.9932 36.4678 53.3433 38.6084C53.2553 38.8983 53.161 39.186 53.064 39.4727L21.2759 40.4775L23.0464 50.708L47.8433 48.8281C47.8405 48.8316 47.8383 48.8354 47.8355 48.8389C45.278 51.9866 41.8346 54.8389 37.5064 57.3965C33.1782 59.8885 27.7352 62.1516 21.1773 64.1846L26.0953 74.4141C36.1967 71.2375 44.2981 67.2611 50.399 62.4844L50.983 62.0205C57.1474 57.0365 61.5735 51.1667 64.2623 44.4121C67.0166 37.6575 68.3941 29.9844 68.3941 21.3936H25.899V31.9189ZM97.4459 83.2021H80.3629V13H97.4459V83.2021Z" fill="#EA8934"/>
<path d="M140.106 93.4056C140.106 93.4056 141.848 98.4158 139.806 100.947C137.764 103.475 125.766 100.583 124.05 99.7115C122.331 98.8402 140.11 93.4056 140.11 93.4056H140.106Z" fill="#D4534B"/>
<path d="M135.804 103.456C130.8 103.456 124.215 101.48 123.37 101.052C122.736 100.729 122.376 100.106 122.436 99.4223C122.533 98.2768 122.984 97.5407 131.573 94.5962C135.583 93.2216 139.63 91.9822 139.671 91.9709L141.052 91.5465L141.525 92.9136C141.732 93.507 143.47 98.8026 140.973 101.89C140.039 103.043 138.087 103.456 135.804 103.456ZM127.609 99.242C128.863 99.55 130.387 99.8693 131.937 100.102C136.701 100.823 138.391 100.271 138.642 99.9969C139.524 98.9078 139.359 96.8083 139.059 95.3023C134.809 96.6318 130.342 98.1529 127.609 99.2383V99.242Z" fill="#461014"/>
<path d="M134.663 95.8694C129.82 100.703 92.5043 123.703 82.8149 117.42C77.5179 113.987 75.2241 106.795 74.2331 100.981C73.7112 97.905 73.5498 95.2197 73.5048 93.6761C73.4747 92.801 73.486 92.2939 73.486 92.2939C73.486 92.2939 139.506 91.0358 134.663 95.8694Z" fill="#D4534B"/>
<path d="M87.3686 120C85.1462 120 83.3555 119.561 82.0003 118.682C76.1739 114.907 73.7563 107.11 72.7539 101.236C72.1983 97.9576 72.0444 95.122 72.0031 93.7211C71.9731 92.8197 71.9843 92.2827 71.9843 92.2601L72.0181 90.8179L73.4597 90.7916C73.6099 90.7916 88.5775 90.51 103.564 90.7278C134.809 91.1822 135.684 93.2479 136.266 94.6112C136.6 95.3962 136.397 96.2637 135.729 96.9323C133.229 99.4298 122.698 106.427 111.233 112.158C100.786 117.378 92.8008 120 87.3724 120H87.3686ZM75.0101 93.7699C75.0552 95.1408 75.2054 97.7397 75.7122 100.729C76.6131 106.01 78.7154 112.973 83.6296 116.158C85.3114 117.251 91.2391 118.783 109.882 109.469C119.793 104.519 129.178 98.4834 132.654 95.6403C130.353 94.9981 123.374 93.984 102.265 93.7136C90.5146 93.5634 79.0195 93.7061 75.0064 93.7699H75.0101ZM133.604 94.8065L134.667 95.8694L133.608 94.8065H133.604Z" fill="#461014"/>
<path opacity="0.1" d="M126.498 99.565C111.575 107.723 87.6427 103.963 75.821 101.342C75.7835 101.135 75.7459 100.932 75.7121 100.729C75.2129 97.7923 75.0589 95.2384 75.0139 93.8451L126.498 99.565Z" fill="black"/>
<path d="M84.8797 105.8C84.8797 106.817 84.0575 107.64 83.0402 107.64C82.0228 107.64 81.2007 106.817 81.2007 105.8C81.2007 104.782 82.0228 103.959 83.0402 103.959C84.0575 103.959 84.8797 104.782 84.8797 105.8Z" fill="#FAFBF1"/>
<path d="M86.3137 112.785C86.3137 113.803 85.4916 114.626 84.4742 114.626C83.4569 114.626 82.6347 113.803 82.6347 112.785C82.6347 111.767 83.4569 110.945 84.4742 110.945C85.4916 110.945 86.3137 111.767 86.3137 112.785Z" fill="#FAFBF1"/>
<path d="M91.2879 110.295C91.2879 111.313 90.4658 112.135 89.4484 112.135C88.431 112.135 87.6089 111.313 87.6089 110.295C87.6089 109.277 88.431 108.455 89.4484 108.455C90.4658 108.455 91.2879 109.277 91.2879 110.295Z" fill="#FAFBF1"/>
<path d="M160.487 70.2064C155.678 80.9817 145.677 96.7257 115.115 100.406C112.559 100.714 109.856 100.94 107.003 101.067C70.036 99.396 58.7286 81.883 53.5179 70.2064C50.0154 62.3607 55.9243 49.9968 60.1815 42.7295C62.2575 39.1803 63.9393 36.848 63.9393 36.848C61.6456 32.8857 59.9787 4.52989 70.8168 1.81825C81.6549 -0.889636 90.4057 14.9558 90.4057 14.9558C98.5334 10.5766 107.003 10.9935 107.003 10.9935C107.003 10.9935 115.472 10.5766 123.6 14.9558C123.6 14.9558 132.35 -0.889636 143.188 1.81825C154.026 4.52989 152.36 32.8857 150.066 36.848C150.066 36.848 165.698 58.5299 160.487 70.2064Z" fill="#EEBB8E"/>
<path d="M107.003 102.57C106.98 102.57 106.958 102.57 106.935 102.57C90.3794 101.822 77.0937 97.7923 67.4531 90.5926C58.7399 84.0877 54.5428 76.1931 52.1477 70.8186C50.143 66.3268 49.685 57.6773 58.8863 41.9708C60.3279 39.5033 61.5742 37.6292 62.2312 36.6715C60.5494 31.8792 59.5207 16.6158 63.4212 7.39176C65.0806 3.47828 67.4456 1.11593 70.4527 0.361022C80.4911 -2.14781 88.5399 9.10438 90.9763 12.9803C98.6385 9.29216 106.128 9.45742 107.003 9.49122C107.881 9.45742 115.367 9.29592 123.029 12.9803C125.462 9.10438 133.514 -2.14781 143.553 0.361022C146.563 1.11593 148.928 3.47828 150.584 7.39176C154.484 16.6158 153.46 31.8717 151.774 36.6677C154.488 40.6037 166.877 59.574 161.858 70.8186C156.699 82.375 146.263 98.1679 115.295 101.897C112.649 102.217 109.882 102.442 107.07 102.57C107.048 102.57 107.025 102.57 107.003 102.57ZM73.3283 3.01257C72.6225 3.01257 71.9055 3.0952 71.181 3.27547C69.135 3.78625 67.4569 5.56647 66.188 8.56355C62.4264 17.4496 63.8117 33.6331 65.2382 36.0969C65.5348 36.6076 65.501 37.2499 65.1556 37.7268C65.1406 37.7494 63.4851 40.0516 61.4766 43.4881C57.6099 50.0907 51.6146 62.2556 54.8882 69.5943C60.2828 81.684 71.5526 97.9426 107.003 99.565C109.717 99.4411 112.386 99.2233 114.935 98.9153C144.386 95.3699 154.255 80.4821 159.117 69.5943C161.062 65.2414 159.947 58.4059 155.892 49.8316C152.735 43.1464 148.887 37.7794 148.85 37.7268C148.504 37.2461 148.47 36.6076 148.767 36.0969C150.194 33.6331 151.579 17.4496 147.817 8.56355C146.548 5.56647 144.87 3.79001 142.824 3.27547C133.24 0.879314 124.996 15.5342 124.913 15.6844C124.515 16.4055 123.611 16.6684 122.886 16.2778C115.247 12.1615 107.153 12.4921 107.074 12.4921C107.025 12.4921 106.976 12.4921 106.928 12.4921C106.849 12.4883 98.7548 12.1615 91.1152 16.2778C90.3907 16.6684 89.486 16.4018 89.088 15.6807C89.0129 15.5455 81.9627 3.00882 73.3246 3.00882L73.3283 3.01257Z" fill="#461014"/>
<path d="M91.3194 41.5432C92.6622 40.4933 92.7199 38.3226 91.4482 36.6948C90.1766 35.067 88.0571 34.5986 86.7143 35.6486C85.3715 36.6985 85.3138 38.8693 86.5855 40.497C87.8571 42.1248 89.9766 42.5932 91.3194 41.5432Z" fill="#461014"/>
<path d="M87.5076 64.3663C90.9244 64.3663 93.6943 61.4136 93.6943 57.7712C93.6943 54.1289 90.9244 51.1761 87.5076 51.1761C84.0907 51.1761 81.3208 54.1289 81.3208 57.7712C81.3208 61.4136 84.0907 64.3663 87.5076 64.3663Z" fill="#461014"/>
<path d="M89.0167 54.9206C89.5019 54.9206 89.8952 54.5019 89.8952 53.9854C89.8952 53.4689 89.5019 53.0502 89.0167 53.0502C88.5315 53.0502 88.1382 53.4689 88.1382 53.9854C88.1382 54.5019 88.5315 54.9206 89.0167 54.9206Z" fill="#F5F4EF"/>
<path d="M127.421 40.5016C128.693 38.8739 128.635 36.7032 127.292 35.6532C125.95 34.6032 123.83 35.0717 122.559 36.6994C121.287 38.3272 121.345 40.4979 122.687 41.5478C124.03 42.5978 126.15 42.1294 127.421 40.5016Z" fill="#461014"/>
<path d="M126.498 64.3663C129.915 64.3663 132.684 61.4136 132.684 57.7712C132.684 54.1289 129.915 51.1761 126.498 51.1761C123.081 51.1761 120.311 54.1289 120.311 57.7712C120.311 61.4136 123.081 64.3663 126.498 64.3663Z" fill="#461014"/>
<path d="M124.992 54.9206C125.477 54.9206 125.871 54.5019 125.871 53.9854C125.871 53.4689 125.477 53.0502 124.992 53.0502C124.507 53.0502 124.114 53.4689 124.114 53.9854C124.114 54.5019 124.507 54.9206 124.992 54.9206Z" fill="#F5F4EF"/>
<path d="M107.003 95.8694C62.6817 95.8694 59.2392 72.6176 63.2748 64.3625C67.3142 56.1074 77.9045 59.3298 82.9313 64.3625C87.958 69.3952 88.4085 69.4966 95.4099 63.7578C102.408 58.0228 107.003 58.3233 107.003 58.3233C107.003 58.3233 111.598 58.0228 118.595 63.7578C125.597 69.4966 126.047 69.3952 131.074 64.3625C136.101 59.3298 146.691 56.1074 150.73 64.3625C154.77 72.6176 151.327 95.8694 107.003 95.8694Z" fill="#FAFBF1"/>
<path d="M114.886 65.9061C114.886 71.9191 107.006 71.9191 107.006 71.9191C107.006 71.9191 99.1227 71.9191 99.1227 65.9061C99.1227 59.8932 107.006 60.6444 107.006 60.6444C107.006 60.6444 114.886 59.8932 114.886 65.9061Z" fill="#461014"/>
<path d="M105.632 61.6809L105.542 61.7485C105.096 62.0866 105.37 62.8602 105.903 62.7739L107.641 62.4997C108.196 62.4133 108.238 61.5382 107.69 61.3917L107.427 61.3204C106.807 61.1514 106.154 61.2828 105.629 61.6809H105.632Z" fill="#F0EEED"/>
<path d="M114.188 79.6484C111.676 79.6484 109.266 78.1536 107.003 75.1941C104.645 78.2738 102.13 79.7648 99.5057 79.6409C94.6103 79.4005 91.5958 73.4777 91.4681 73.2261C91.0965 72.4824 91.3968 71.5811 92.1401 71.2092C92.8834 70.8374 93.7844 71.1379 94.1561 71.8815C94.8018 73.1622 97.0505 76.5161 99.6596 76.64C102.07 76.7452 104.292 74.0448 105.734 71.7538C106.008 71.3182 106.488 71.0515 107.006 71.0515C107.524 71.0515 108.001 71.3182 108.279 71.7538C109.717 74.0448 111.939 76.7452 114.353 76.64C116.962 76.5161 119.211 73.1622 119.857 71.8815C120.228 71.1416 121.133 70.8412 121.873 71.213C122.612 71.5848 122.912 72.4862 122.541 73.2261C122.413 73.4777 119.399 79.4005 114.503 79.6409C114.398 79.6446 114.297 79.6484 114.192 79.6484H114.188Z" fill="#461014"/>
<path d="M113.813 78.1423C113.813 78.1423 113.058 85.1468 107.003 85.1468C100.947 85.1468 100.193 78.1423 100.193 78.1423C105.546 78.1423 107.003 72.5538 107.003 72.5538C107.003 72.5538 108.459 78.1423 113.813 78.1423Z" fill="#E97666"/>
<path d="M107.003 86.6491C101.146 86.6491 99.0101 81.1882 98.6985 78.3038C98.6535 77.8794 98.7886 77.455 99.0739 77.1395C99.3592 76.8203 99.7647 76.64 100.193 76.64C104.292 76.64 105.501 72.351 105.55 72.1669C105.726 71.5134 106.323 71.0553 106.999 71.0553H107.006C107.686 71.0553 108.283 71.5172 108.452 72.1745C108.5 72.351 109.709 76.64 113.809 76.64C114.237 76.64 114.642 76.8203 114.927 77.1395C115.213 77.455 115.348 77.8794 115.303 78.3038C114.991 81.192 112.855 86.6491 106.999 86.6491H107.003ZM102.028 79.4456C102.179 79.9225 102.393 80.4634 102.689 81.0004C103.676 82.7807 105.088 83.6445 107.006 83.6445C108.925 83.6445 110.336 82.7807 111.324 81.0004C111.62 80.4671 111.834 79.9225 111.984 79.4456C109.698 78.931 108.069 77.4926 107.006 75.979C105.944 77.4926 104.318 78.931 102.028 79.4456Z" fill="#461014"/>
<path d="M85.797 69.6874C85.9609 67.422 83.4853 65.3967 80.2676 65.1637C77.0499 64.9307 74.3086 66.5782 74.1447 68.8436C73.9808 71.1089 76.4564 73.1343 79.6741 73.3673C82.8918 73.6003 85.6331 71.9527 85.797 69.6874Z" fill="#EE9383"/>
<path d="M134.999 73.3687C138.216 73.1357 140.692 71.1103 140.528 68.845C140.364 66.5796 137.623 64.9321 134.405 65.1651C131.188 65.3981 128.712 67.4234 128.876 69.6888C129.04 71.9541 131.781 73.6017 134.999 73.3687Z" fill="#EE9383"/>
<path d="M133.026 20.7885C133.657 21.2279 134.254 21.6598 134.82 22.0842C137.666 24.2212 139.72 26.1667 141.109 27.6502C142.772 29.4267 143.492 30.5421 143.492 30.5421C143.492 30.5421 146.856 13.4948 142.182 11.4404C137.512 9.3823 133.026 20.7885 133.026 20.7885Z" fill="#EE9383"/>
<path d="M134.82 22.0842C137.666 24.2212 139.72 26.1667 141.109 27.6502C141.522 25.2503 142.531 18.0919 140.166 17.0778C137.82 16.0675 135.549 20.4918 134.82 22.0842Z" fill="#E77563"/>
<path d="M82.706 20.7885C82.0753 21.2279 81.4784 21.6598 80.9116 22.0842C78.066 24.2212 76.0125 26.1667 74.6235 27.6502C72.9604 29.4267 72.2396 30.5421 72.2396 30.5421C72.2396 30.5421 68.8759 13.4948 73.5498 11.4404C78.2199 9.3823 82.706 20.7885 82.706 20.7885Z" fill="#EE9383"/>
<path d="M80.9116 22.0842C78.066 24.2212 76.0125 26.1667 74.6234 27.6502C74.2105 25.2503 73.2006 18.0919 75.5657 17.0778C77.912 16.0675 80.1833 20.4918 80.9116 22.0842Z" fill="#E77563"/>
<path opacity="0.1" d="M114.233 98.9979C111.894 99.2608 109.469 99.4524 107.003 99.565C71.5564 97.9426 60.2866 81.684 54.8882 69.5943C51.6146 62.2556 57.6099 50.0907 61.4766 43.4881C61.5892 43.2966 61.6981 43.1088 61.8107 42.9248L62.0135 42.9473C62.0135 42.9473 35.9863 94.3371 114.233 98.9979Z" fill="black"/>
<path d="M49.4648 188H33.7852L23.625 168.348L19.5117 170.809V188H5.55469V136.602H19.5117V158.926C20.0977 157.801 20.7656 156.676 21.5156 155.551C22.2891 154.426 23.0391 153.359 23.7656 152.352L34.5586 136.602H49.7461L33.5391 159.629L49.4648 188Z" fill="#EA8934"/>
<path d="M68.0625 148.168V188H54.3164V148.168H68.0625ZM61.2422 132.137C63.2109 132.137 64.9219 132.547 66.375 133.367C67.8516 134.188 68.5898 135.816 68.5898 138.254C68.5898 140.621 67.8516 142.227 66.375 143.07C64.9219 143.891 63.2109 144.301 61.2422 144.301C59.2266 144.301 57.5039 143.891 56.0742 143.07C54.668 142.227 53.9648 140.621 53.9648 138.254C53.9648 135.816 54.668 134.188 56.0742 133.367C57.5039 132.547 59.2266 132.137 61.2422 132.137ZM102.586 147.465C106.688 147.465 110.039 148.625 112.641 150.945C115.242 153.266 116.543 156.98 116.543 162.09V188H102.797V166.273C102.797 163.625 102.41 161.633 101.637 160.297C100.887 158.938 99.668 158.258 97.9805 158.258C95.3789 158.258 93.6328 159.324 92.7422 161.457C91.8516 163.566 91.4062 166.602 91.4062 170.562V188H77.6602V148.168H88.0312L89.8945 153.441H90.4219C91.2656 152.176 92.2734 151.098 93.4453 150.207C94.6172 149.316 95.9648 148.637 97.4883 148.168C99.0117 147.699 100.711 147.465 102.586 147.465ZM138.27 188.703C134.168 188.703 130.793 186.957 128.145 183.465C125.496 179.973 124.172 174.863 124.172 168.137C124.172 161.34 125.531 156.195 128.25 152.703C130.969 149.211 134.484 147.465 138.797 147.465C140.578 147.465 142.113 147.723 143.402 148.238C144.691 148.754 145.805 149.457 146.742 150.348C147.703 151.215 148.535 152.199 149.238 153.301H149.52C149.355 152.293 149.203 150.91 149.062 149.152C148.922 147.371 148.852 145.637 148.852 143.949V133.297H162.703V188H152.332L149.379 182.973H148.852C148.219 184.027 147.422 184.988 146.461 185.855C145.523 186.723 144.375 187.414 143.016 187.93C141.68 188.445 140.098 188.703 138.27 188.703ZM143.895 177.84C146.098 177.84 147.645 177.148 148.535 175.766C149.449 174.359 149.941 172.227 150.012 169.367V168.277C150.012 165.137 149.566 162.734 148.676 161.07C147.809 159.383 146.168 158.539 143.754 158.539C142.113 158.539 140.754 159.336 139.676 160.93C138.598 162.523 138.059 164.996 138.059 168.348C138.059 171.652 138.598 174.066 139.676 175.59C140.777 177.09 142.184 177.84 143.895 177.84ZM210.27 167.996C210.27 171.324 209.812 174.277 208.898 176.855C207.984 179.434 206.66 181.602 204.926 183.359C203.191 185.117 201.094 186.453 198.633 187.367C196.172 188.258 193.395 188.703 190.301 188.703C187.418 188.703 184.77 188.258 182.355 187.367C179.965 186.453 177.879 185.117 176.098 183.359C174.316 181.602 172.934 179.434 171.949 176.855C170.988 174.277 170.508 171.324 170.508 167.996C170.508 163.59 171.305 159.863 172.898 156.816C174.516 153.77 176.812 151.449 179.789 149.855C182.789 148.262 186.363 147.465 190.512 147.465C194.332 147.465 197.73 148.262 200.707 149.855C203.684 151.449 206.016 153.77 207.703 156.816C209.414 159.863 210.27 163.59 210.27 167.996ZM184.465 167.996C184.465 170.27 184.664 172.191 185.062 173.762C185.461 175.309 186.094 176.492 186.961 177.312C187.852 178.109 189.012 178.508 190.441 178.508C191.871 178.508 193.008 178.109 193.852 177.312C194.695 176.492 195.305 175.309 195.68 173.762C196.078 172.191 196.277 170.27 196.277 167.996C196.277 165.723 196.078 163.824 195.68 162.301C195.305 160.777 194.684 159.629 193.816 158.855C192.973 158.082 191.824 157.695 190.371 157.695C188.285 157.695 186.773 158.562 185.836 160.297C184.922 162.031 184.465 164.598 184.465 167.996Z" fill="#333333"/>
</svg>
